<?xml version="1.0" encoding="UTF-8" standalone="no"?>
<!DOCTYPE svg PUBLIC "-//W3C//DTD SVG 1.1//EN" "http://www.w3.org/Graphics/SVG/1.1/DTD/svg11.dtd">
<svg width="100%" height="100%" viewBox="0 0 320 416" version="1.1" xmlns="http://www.w3.org/2000/svg" xmlns:xlink="http://www.w3.org/1999/xlink" xml:space="preserve" xmlns:serif="http://www.serif.com/" style="fill-rule:evenodd;clip-rule:evenodd;stroke-linejoin:round;stroke-miterlimit:2;">
    <g id="Artboard1" transform="matrix(1.11111,0,0,1.44444,0,0)">
        <rect x="0" y="0" width="288" height="288" style="fill:none;"/>
        <g id="Layer1" transform="matrix(0.9,0,0,0.692308,0,0)">
            <rect x="0" y="0" width="320" height="416" style="fill:rgb(14,24,27);"/>
        </g>
        <g transform="matrix(0.9,0,0,0.692308,53.3489,29.112)">
            <path d="M28.563,104.381C28.563,105.405 28.201,106.173 27.475,106.685C26.75,107.197 25.961,107.453 25.107,107.453C22.761,107.453 21.587,106.429 21.587,104.381L21.587,58.941C21.587,56.893 22.761,55.869 25.107,55.869C27.454,55.869 28.627,56.893 28.627,58.941L28.627,68.541L42.131,68.541C44.307,68.541 46.569,69.352 48.915,70.973C51.219,72.595 52.371,75.155 52.371,78.653L52.371,97.725C52.371,101.267 51.326,103.699 49.235,105.021C47.145,106.387 44.755,107.069 42.067,107.069L34.515,107.069C32.979,107.069 32.169,106.067 32.083,104.061C32.083,102.056 32.894,101.053 34.515,101.053L40.915,101.053C42.494,101.053 43.625,100.765 44.307,100.189C44.99,99.613 45.331,98.771 45.331,97.661L45.331,79.229C45.331,78.12 44.99,77.053 44.307,76.029L44.371,76.093C43.817,75.069 42.686,74.557 40.979,74.557L28.627,74.557L28.563,104.381Z" style="fill:rgb(242,247,246);fill-rule:nonzero;"/>
            <path d="M67.539,104.573C67.539,106.579 66.366,107.581 64.019,107.581C61.63,107.581 60.435,106.579 60.435,104.573L60.435,58.685C60.435,56.68 61.63,55.677 64.019,55.677C66.366,55.677 67.539,56.68 67.539,58.685L67.539,104.573Z" style="fill:rgb(242,247,246);fill-rule:nonzero;"/>
            <path d="M86.035,107.069C84.713,107.069 83.454,106.888 82.259,106.525C81.065,106.163 79.913,105.64 78.803,104.957L78.803,105.021C76.713,103.699 75.667,101.267 75.667,97.725L75.667,94.589C75.667,92.84 75.977,91.315 76.595,90.013C77.214,88.712 78.078,87.677 79.187,86.909L79.123,86.909C80.19,86.184 81.321,85.64 82.515,85.277C83.71,84.915 84.862,84.733 85.971,84.733L100.115,84.733L100.115,78.781C100.115,77.715 99.785,76.744 99.123,75.869C98.462,74.995 97.342,74.557 95.763,74.557L88.275,74.557C86.654,74.557 85.534,74.952 84.915,75.741C84.297,76.531 83.987,77.459 83.987,78.525L83.987,79.037C83.987,81.256 82.793,82.365 80.403,82.365C78.014,82.365 76.819,81.256 76.819,79.037L76.819,78.461C76.819,76.712 77.129,75.24 77.747,74.045C78.366,72.851 79.209,71.848 80.275,71.037L80.211,71.037C81.321,70.312 82.483,69.715 83.699,69.245C84.915,68.776 86.078,68.541 87.187,68.541L96.915,68.541C97.982,68.541 99.123,68.776 100.339,69.245C101.555,69.715 102.697,70.312 103.763,71.037L103.699,71.037C104.809,71.848 105.662,72.904 106.259,74.205C106.857,75.507 107.155,77.011 107.155,78.717L107.155,104.381C107.155,106.429 105.982,107.453 103.635,107.453C103.166,107.453 102.729,107.432 102.323,107.389C101.918,107.347 101.555,107.229 101.235,107.037C100.915,106.845 100.659,106.568 100.467,106.205C100.275,105.843 100.179,105.363 100.179,104.765L100.115,90.749L87.187,90.749C86.249,90.749 85.523,90.856 85.011,91.069C84.499,91.283 84.094,91.624 83.795,92.093C83.454,92.819 83.209,93.384 83.059,93.789C82.91,94.195 82.835,94.653 82.835,95.165L82.835,97.661C82.835,98.771 83.166,99.613 83.827,100.189C84.489,100.765 85.63,101.053 87.251,101.053L94.419,101.053C95.998,101.053 96.787,102.056 96.787,104.061C96.787,104.915 96.595,105.629 96.211,106.205C95.827,106.781 95.23,107.069 94.419,107.069L86.035,107.069Z" style="fill:rgb(242,247,246);fill-rule:nonzero;"/>
            <path d="M146.195,96.893C146.195,100.392 145.043,102.973 142.739,104.637C140.478,106.259 138.217,107.069 135.955,107.069L125.203,107.069C122.942,107.069 120.745,106.259 118.611,104.637C117.587,103.784 116.798,102.707 116.243,101.405C115.689,100.104 115.411,98.6 115.411,96.893L115.411,78.653C115.411,75.197 116.478,72.637 118.611,70.973C119.678,70.205 120.777,69.597 121.907,69.149C123.038,68.701 124.137,68.477 125.203,68.477L135.955,68.477C136.979,68.477 138.11,68.68 139.347,69.085C140.585,69.491 141.737,70.035 142.803,70.717C143.827,71.443 144.649,72.445 145.267,73.725C145.886,75.005 146.195,76.52 146.195,78.269L146.195,81.469C146.195,83.517 145.022,84.541 142.675,84.541C140.329,84.541 139.155,83.517 139.155,81.469L139.155,78.717C139.155,77.651 138.825,76.68 138.163,75.805C137.502,74.931 136.382,74.493 134.803,74.493L126.803,74.493C125.225,74.493 124.105,74.931 123.443,75.805C122.782,76.68 122.451,77.651 122.451,78.717L122.451,96.829C122.451,97.853 122.782,98.813 123.443,99.709C124.105,100.605 125.225,101.053 126.803,101.053L134.803,101.053C136.382,101.053 137.502,100.605 138.163,99.709C138.825,98.813 139.155,97.853 139.155,96.829L139.155,93.885C139.155,91.88 140.329,90.877 142.675,90.877C145.022,90.877 146.195,91.88 146.195,93.885L146.195,96.893Z" style="fill:rgb(242,247,246);fill-rule:nonzero;"/>
            <path d="M161.235,96.381L161.235,104.509C161.235,106.515 160.062,107.517 157.715,107.517C155.369,107.517 154.195,106.515 154.195,104.509L154.195,58.941C154.195,56.893 155.369,55.869 157.715,55.869C160.062,55.869 161.235,56.893 161.235,58.941L161.235,86.077C162.302,84.797 163.486,83.421 164.787,81.949C166.089,80.477 167.39,78.984 168.691,77.469C169.993,75.955 171.283,74.461 172.563,72.989C173.843,71.517 175.038,70.141 176.147,68.861L176.147,68.925C176.915,68.029 177.683,67.581 178.451,67.581C178.878,67.581 179.294,67.677 179.699,67.869C180.105,68.061 180.542,68.328 181.011,68.669L180.947,68.669C181.971,69.523 182.483,70.376 182.483,71.229C182.483,71.528 182.419,71.859 182.291,72.221C182.163,72.584 181.95,72.893 181.651,73.149L161.235,96.381ZM182.611,102.781C182.91,103.336 183.059,103.912 183.059,104.509C183.059,105.619 182.419,106.451 181.139,107.005C180.286,107.517 179.518,107.773 178.835,107.773C178.366,107.773 177.918,107.613 177.491,107.293C177.065,106.973 176.723,106.579 176.467,106.109L170.067,93.757C169.683,93.117 169.491,92.477 169.491,91.837C169.491,90.771 170.046,89.875 171.155,89.149C171.454,88.936 171.763,88.744 172.083,88.573C172.403,88.403 172.755,88.275 173.139,88.189C173.609,88.104 174.057,88.189 174.483,88.445C174.91,88.701 175.273,89.043 175.571,89.469L182.611,102.781Z" style="fill:rgb(242,247,246);fill-rule:nonzero;"/>
            <path d="M45.459,184.381C45.459,186.429 44.286,187.453 41.939,187.453C39.593,187.453 38.419,186.429 38.419,184.381L38.419,138.941C38.419,136.893 39.593,135.869 41.939,135.869C44.286,135.869 45.459,136.893 45.459,138.941L45.459,148.541L58.963,148.541C61.139,148.541 63.401,149.352 65.747,150.973C68.051,152.595 69.203,155.155 69.203,158.653L69.203,184.381C69.203,186.429 68.03,187.453 65.683,187.453C63.337,187.453 62.163,186.429 62.163,184.381L62.163,159.229C62.163,158.12 61.822,157.053 61.139,156.029L61.203,156.093C60.649,155.069 59.518,154.557 57.811,154.557L45.459,154.557L45.459,184.381Z" style="fill:rgb(242,247,246);fill-rule:nonzero;"/>
            <path d="M98.131,148.541C99.241,148.541 100.382,148.776 101.555,149.245C102.729,149.715 103.87,150.312 104.979,151.037L104.915,151.037C106.025,151.848 106.878,152.904 107.475,154.205C108.073,155.507 108.371,157.011 108.371,158.717L108.371,176.893C108.371,180.392 107.219,182.973 104.915,184.637C102.654,186.259 100.393,187.069 98.131,187.069L87.891,187.069C86.782,187.069 85.651,186.877 84.499,186.493C83.347,186.109 82.217,185.491 81.107,184.637C78.803,183.016 77.651,180.435 77.651,176.893L77.651,158.717C77.651,157.011 77.95,155.507 78.547,154.205C79.145,152.904 79.998,151.848 81.107,151.037L81.043,151.037C82.11,150.312 83.241,149.715 84.435,149.245C85.63,148.776 86.782,148.541 87.891,148.541L98.131,148.541ZM96.979,181.053C98.558,181.053 99.678,180.605 100.339,179.709C101.001,178.813 101.331,177.853 101.331,176.829L101.331,158.781C101.331,157.715 101.001,156.744 100.339,155.869C99.678,154.995 98.558,154.557 96.979,154.557L89.043,154.557C87.465,154.557 86.345,154.995 85.683,155.869C85.022,156.744 84.691,157.715 84.691,158.781L84.691,176.829C84.691,177.853 85.022,178.813 85.683,179.709C86.345,180.605 87.465,181.053 89.043,181.053L96.979,181.053Z" style="fill:rgb(242,247,246);fill-rule:nonzero;"/>
            <path d="M123.731,184.573C123.731,186.579 122.558,187.581 120.211,187.581C117.822,187.581 116.627,186.579 116.627,184.573L116.627,138.685C116.627,136.68 117.822,135.677 120.211,135.677C122.558,135.677 123.731,136.68 123.731,138.685L123.731,184.573Z" style="fill:rgb(242,247,246);fill-rule:nonzero;"/>
            <path d="M139.603,176.829C139.603,177.853 139.934,178.813 140.595,179.709C141.257,180.605 142.377,181.053 143.955,181.053L151.955,181.053C153.534,181.053 154.654,180.659 155.315,179.869C155.977,179.08 156.307,178.173 156.307,177.149L156.307,176.445C156.307,174.44 157.481,173.437 159.827,173.437C162.174,173.437 163.347,174.44 163.347,176.445L163.347,177.213C163.347,179.005 163.059,180.477 162.483,181.629C161.907,182.781 161.043,183.784 159.891,184.637C157.63,186.259 155.369,187.069 153.107,187.069L142.355,187.069C140.094,187.069 137.897,186.259 135.763,184.637C134.739,183.784 133.95,182.707 133.395,181.405C132.841,180.104 132.563,178.6 132.563,176.893L132.563,158.653C132.563,155.197 133.63,152.637 135.763,150.973C136.83,150.205 137.929,149.597 139.059,149.149C140.19,148.701 141.289,148.477 142.355,148.477L153.107,148.477C154.131,148.477 155.262,148.68 156.499,149.085C157.737,149.491 158.889,150.035 159.955,150.717C160.979,151.443 161.801,152.445 162.419,153.725C163.038,155.005 163.347,156.52 163.347,158.269L163.347,166.909C163.347,167.891 163.059,168.765 162.483,169.533C161.907,170.301 160.851,170.685 159.315,170.685L145.491,170.685C143.955,170.685 143.145,169.683 143.059,167.677C143.059,165.672 143.87,164.669 145.491,164.669L156.371,164.669L156.307,158.717C156.307,157.651 155.977,156.68 155.315,155.805C154.654,154.931 153.534,154.493 151.955,154.493L143.955,154.493C142.377,154.493 141.257,154.931 140.595,155.805C139.934,156.68 139.603,157.651 139.603,158.717L139.603,176.829Z" style="fill:rgb(242,247,246);fill-rule:nonzero;"/>
            <path d="M15.635,244.669C16.702,244.669 17.843,244.915 19.059,245.405C20.275,245.896 21.417,246.504 22.483,247.229L22.419,247.229C23.529,248.04 24.382,249.085 24.979,250.365C25.577,251.645 25.875,253.181 25.875,254.973L25.875,256.893C25.875,260.392 24.723,262.973 22.419,264.637C21.31,265.491 20.179,266.109 19.027,266.493C17.875,266.877 16.745,267.069 15.635,267.069L4.755,267.069C3.646,267.069 2.515,266.877 1.363,266.493C0.211,266.109 -0.919,265.491 -2.029,264.637C-4.333,263.016 -5.485,260.435 -5.485,256.893L-5.485,256.125C-5.485,254.291 -4.311,253.395 -1.965,253.437C0.425,253.437 1.619,254.333 1.619,256.125L1.619,256.829C1.619,257.853 1.939,258.813 2.579,259.709C3.219,260.605 4.35,261.053 5.971,261.053L14.419,261.053C16.041,261.053 17.171,260.605 17.811,259.709C18.451,258.813 18.771,257.853 18.771,256.829L18.771,255.037C18.771,254.483 18.697,253.949 18.547,253.437C18.398,252.925 18.153,252.467 17.811,252.061C17.47,251.656 17.022,251.325 16.467,251.069C15.913,250.813 15.23,250.685 14.419,250.685L5.075,250.685C2.899,250.685 0.617,249.917 -1.773,248.381C-4.034,246.931 -5.165,244.435 -5.165,240.893L-5.165,238.717C-5.165,237.011 -4.866,235.507 -4.269,234.205C-3.671,232.904 -2.818,231.848 -1.709,231.037L-1.773,231.037C-0.706,230.312 0.425,229.715 1.619,229.245C2.814,228.776 3.966,228.541 5.075,228.541L15.315,228.541C16.425,228.541 17.566,228.776 18.739,229.245C19.913,229.715 21.054,230.312 22.163,231.037L22.099,231.037C23.209,231.848 24.062,232.904 24.659,234.205C25.257,235.507 25.555,237.011 25.555,238.717L25.555,239.293C25.555,240.189 25.257,240.84 24.659,241.245C24.062,241.651 23.187,241.875 22.035,241.917C19.689,241.96 18.515,241.085 18.515,239.293L18.515,238.781C18.515,237.715 18.185,236.744 17.523,235.869C16.862,234.995 15.742,234.557 14.163,234.557L6.227,234.557C4.649,234.557 3.529,234.995 2.867,235.869C2.206,236.744 1.875,237.715 1.875,238.781L1.875,240.317C1.875,241.427 2.206,242.429 2.867,243.325C3.529,244.221 4.649,244.669 6.227,244.669L15.635,244.669Z" style="fill:rgb(242,247,246);fill-rule:nonzero;"/>
            <path d="M44.499,267.069C43.39,267.069 42.195,266.941 40.915,266.685C39.635,266.429 38.441,265.939 37.331,265.213C36.137,264.488 35.315,263.432 34.867,262.045C34.419,260.659 34.195,259.069 34.195,257.277L34.195,238.333C34.195,236.541 34.505,235.005 35.123,233.725C35.742,232.445 36.585,231.443 37.651,230.717C38.761,230.035 39.891,229.501 41.043,229.117C42.195,228.733 43.326,228.541 44.435,228.541L54.739,228.541C55.849,228.541 56.969,228.733 58.099,229.117C59.23,229.501 60.393,230.035 61.587,230.717C62.611,231.443 63.433,232.456 64.051,233.757C64.67,235.059 64.979,236.584 64.979,238.333L64.979,273.149C64.979,275.197 63.806,276.221 61.459,276.221C59.113,276.221 57.939,275.219 57.939,273.213L57.939,238.781C57.939,237.715 57.609,236.744 56.947,235.869C56.286,234.995 55.166,234.557 53.587,234.557L45.587,234.557C44.009,234.557 42.889,234.995 42.227,235.869C41.566,236.744 41.235,237.715 41.235,238.781L41.235,256.829C41.235,257.853 41.566,258.813 42.227,259.709C42.889,260.605 44.009,261.053 45.587,261.053L52.243,261.053C53.779,261.053 54.547,262.056 54.547,264.061C54.547,264.915 54.366,265.629 54.003,266.205C53.641,266.781 53.054,267.069 52.243,267.069L44.499,267.069Z" style="fill:rgb(242,247,246);fill-rule:nonzero;"/>
            <path d="M103.891,256.893C103.891,258.6 103.593,260.115 102.995,261.437C102.398,262.76 101.545,263.827 100.435,264.637L100.499,264.637C99.433,265.363 98.302,265.949 97.107,266.397C95.913,266.845 94.761,267.069 93.651,267.069L83.347,267.069C82.281,267.069 81.139,266.845 79.923,266.397C78.707,265.949 77.566,265.363 76.499,264.637L76.563,264.637C75.454,263.827 74.601,262.76 74.003,261.437C73.406,260.115 73.107,258.6 73.107,256.893L73.107,231.229C73.107,229.181 74.281,228.157 76.627,228.157C78.974,228.157 80.147,229.181 80.147,231.229L80.147,256.381C80.147,257.576 80.446,258.621 81.043,259.517C81.598,260.541 82.75,261.053 84.499,261.053L92.499,261.053C94.206,261.053 95.337,260.541 95.891,259.517L95.827,259.581C96.51,258.557 96.851,257.491 96.851,256.381L96.851,231.229C96.851,229.181 98.025,228.157 100.371,228.157C102.718,228.157 103.891,229.181 103.891,231.229L103.891,256.893Z" style="fill:rgb(242,247,246);fill-rule:nonzero;"/>
            <path d="M121.555,267.069C120.233,267.069 118.974,266.888 117.779,266.525C116.585,266.163 115.433,265.64 114.323,264.957L114.323,265.021C112.233,263.699 111.187,261.267 111.187,257.725L111.187,254.589C111.187,252.84 111.497,251.315 112.115,250.013C112.734,248.712 113.598,247.677 114.707,246.909L114.643,246.909C115.71,246.184 116.841,245.64 118.035,245.277C119.23,244.915 120.382,244.733 121.491,244.733L135.635,244.733L135.635,238.781C135.635,237.715 135.305,236.744 134.643,235.869C133.982,234.995 132.862,234.557 131.283,234.557L123.795,234.557C122.174,234.557 121.054,234.952 120.435,235.741C119.817,236.531 119.507,237.459 119.507,238.525L119.507,239.037C119.507,241.256 118.313,242.365 115.923,242.365C113.534,242.365 112.339,241.256 112.339,239.037L112.339,238.461C112.339,236.712 112.649,235.24 113.267,234.045C113.886,232.851 114.729,231.848 115.795,231.037L115.731,231.037C116.841,230.312 118.003,229.715 119.219,229.245C120.435,228.776 121.598,228.541 122.707,228.541L132.435,228.541C133.502,228.541 134.643,228.776 135.859,229.245C137.075,229.715 138.217,230.312 139.283,231.037L139.219,231.037C140.329,231.848 141.182,232.904 141.779,234.205C142.377,235.507 142.675,237.011 142.675,238.717L142.675,264.381C142.675,266.429 141.502,267.453 139.155,267.453C138.686,267.453 138.249,267.432 137.843,267.389C137.438,267.347 137.075,267.229 136.755,267.037C136.435,266.845 136.179,266.568 135.987,266.205C135.795,265.843 135.699,265.363 135.699,264.765L135.635,250.749L122.707,250.749C121.769,250.749 121.043,250.856 120.531,251.069C120.019,251.283 119.614,251.624 119.315,252.093C118.974,252.819 118.729,253.384 118.579,253.789C118.43,254.195 118.355,254.653 118.355,255.165L118.355,257.661C118.355,258.771 118.686,259.613 119.347,260.189C120.009,260.765 121.15,261.053 122.771,261.053L129.939,261.053C131.518,261.053 132.307,262.056 132.307,264.061C132.307,264.915 132.115,265.629 131.731,266.205C131.347,266.781 130.75,267.069 129.939,267.069L121.555,267.069Z" style="fill:rgb(242,247,246);fill-rule:nonzero;"/>
            <path d="M157.843,264.381C157.843,266.429 156.67,267.453 154.323,267.453C151.891,267.453 150.675,266.429 150.675,264.381L150.675,237.885C150.675,234.387 151.721,231.955 153.811,230.589C155.902,229.224 158.313,228.541 161.043,228.541L168.339,228.541C169.918,228.541 170.707,229.544 170.707,231.549C170.793,233.555 170.003,234.557 168.339,234.557L161.555,234.557C160.019,234.557 159.017,234.856 158.547,235.453C158.078,236.051 157.843,236.883 157.843,237.949L157.843,264.381Z" style="fill:rgb(242,247,246);fill-rule:nonzero;"/>
            <path d="M183.187,256.829C183.187,257.853 183.518,258.813 184.179,259.709C184.841,260.605 185.961,261.053 187.539,261.053L195.539,261.053C197.118,261.053 198.238,260.659 198.899,259.869C199.561,259.08 199.891,258.173 199.891,257.149L199.891,256.445C199.891,254.44 201.065,253.437 203.411,253.437C205.758,253.437 206.931,254.44 206.931,256.445L206.931,257.213C206.931,259.005 206.643,260.477 206.067,261.629C205.491,262.781 204.627,263.784 203.475,264.637C201.214,266.259 198.953,267.069 196.691,267.069L185.939,267.069C183.678,267.069 181.481,266.259 179.347,264.637C178.323,263.784 177.534,262.707 176.979,261.405C176.425,260.104 176.147,258.6 176.147,256.893L176.147,238.653C176.147,235.197 177.214,232.637 179.347,230.973C180.414,230.205 181.513,229.597 182.643,229.149C183.774,228.701 184.873,228.477 185.939,228.477L196.691,228.477C197.715,228.477 198.846,228.68 200.083,229.085C201.321,229.491 202.473,230.035 203.539,230.717C204.563,231.443 205.385,232.445 206.003,233.725C206.622,235.005 206.931,236.52 206.931,238.269L206.931,246.909C206.931,247.891 206.643,248.765 206.067,249.533C205.491,250.301 204.435,250.685 202.899,250.685L189.075,250.685C187.539,250.685 186.729,249.683 186.643,247.677C186.643,245.672 187.454,244.669 189.075,244.669L199.955,244.669L199.891,238.717C199.891,237.651 199.561,236.68 198.899,235.805C198.238,234.931 197.118,234.493 195.539,234.493L187.539,234.493C185.961,234.493 184.841,234.931 184.179,235.805C183.518,236.68 183.187,237.651 183.187,238.717L183.187,256.829Z" style="fill:rgb(242,247,246);fill-rule:nonzero;"/>
        </g>
    </g>
</svg>
